<svg width="512" height="512" viewBox="0 0 512 512" fill="none" xmlns="http://www.w3.org/2000/svg">
<g clip-path="url(#clip0_113_231)">
<path fill-rule="evenodd" clip-rule="evenodd" d="M505.158 278.547C508.84 277.207 511.418 273.841 511.627 269.929C511.875 265.317 512 260.673 512 256C512 231.49 508.555 207.784 502.124 185.341C500.571 179.921 494.708 177.095 489.409 179.023L27.7205 347.064C22.4218 348.993 19.7471 354.927 22.0419 360.078C33.7457 386.348 49.744 410.282 69.145 430.99C71.821 433.847 75.9546 434.765 79.6325 433.426L505.158 278.547ZM504.493 317.789C506.346 310.316 499.041 304.125 491.806 306.758L108.043 446.437C100.805 449.071 99.1829 458.508 105.408 463.044C147.667 493.834 199.712 512 256 512C376.081 512 476.851 429.324 504.493 317.789ZM20.7641 326.245C15.3646 328.21 9.40481 325.235 7.98004 319.669C2.77003 299.313 0 277.98 0 256C0 247.285 0.43544 238.673 1.28575 230.182C1.65993 226.446 4.18811 223.294 7.71671 222.01L424.327 70.3762C427.852 69.0932 431.811 69.8791 434.499 72.4949C455.978 93.3911 473.8 118.026 486.917 145.348C489.404 150.529 486.751 156.64 481.351 158.605L20.7641 326.245ZM395.689 41.4351C402.319 45.7601 400.883 55.558 393.445 58.2654L23.5572 192.893C16.1199 195.6 8.72566 189.013 11.0274 181.44C42.9492 76.4232 140.55 0 256 0C307.539 0 355.52 15.23 395.689 41.4351Z" fill="url(#paint0_linear_113_231)"/>
</g>
<defs>
<linearGradient id="paint0_linear_113_231" x1="256" y1="0" x2="256" y2="512" gradientUnits="userSpaceOnUse">
<stop stop-color="#BBF7D0"/>
<stop offset="0.510417" stop-color="#86EFAC"/>
<stop offset="1" stop-color="#3B82F6"/>
</linearGradient>
<clipPath id="clip0_113_231">
<rect width="512" height="512" fill="white"/>
</clipPath>
</defs>
</svg>
