<svg width="512" height="512" viewBox="0 0 512 512" fill="none" xmlns="http://www.w3.org/2000/svg">
<path fill-rule="evenodd" clip-rule="evenodd" d="M359.613 266.943C363.295 265.603 365.895 262.236 365.976 258.319C365.992 257.548 366 256.775 366 256C366 247.517 365.04 239.258 363.222 231.325C361.962 225.83 356.072 223.004 350.774 224.933L163.431 293.12C158.133 295.048 155.437 301 158.005 306.02C162.159 314.142 167.292 321.679 173.25 328.476C175.83 331.42 179.982 332.323 183.66 330.985L359.613 266.943ZM359.967 292.021C362.487 284.745 355.272 278.557 348.037 281.19L201.718 334.446C194.48 337.08 192.929 346.463 199.536 350.422C216.042 360.314 235.357 366 256 366C304.136 366 345.05 335.081 359.967 292.021ZM160.595 284.119C155.195 286.084 149.21 283.108 148.094 277.471C146.72 270.527 146 263.347 146 256C146 253.44 146.087 250.9 146.26 248.383C146.516 244.637 149.066 241.486 152.594 240.202L325.053 177.432C328.578 176.149 332.553 176.92 335.158 179.619C341.909 186.614 347.741 194.501 352.461 203.086C355.229 208.122 352.557 214.25 347.157 216.216L160.595 284.119ZM307.006 158.515C314.016 162.191 312.67 171.905 305.231 174.613L165.946 225.308C158.509 228.015 151.237 221.44 154.252 214.122C170.725 174.142 210.076 146 256 146C274.408 146 291.76 150.522 307.006 158.515Z" fill="url(#paint0_linear_109_31)"/>
<path d="M448 256L420 256" stroke="#86EFAC" stroke-width="28" stroke-linecap="round"/>
<path d="M92 256L64 256" stroke="#86EFAC" stroke-width="28" stroke-linecap="round"/>
<path d="M256 420V448" stroke="#3B82F6" stroke-width="28" stroke-linecap="round"/>
<path d="M140.034 371.966L120.235 391.765" stroke="#3B82F6" stroke-width="28" stroke-linecap="round"/>
<path d="M391.765 391.765L371.966 371.966" stroke="#3B82F6" stroke-width="28" stroke-linecap="round"/>
<path d="M256 64V92" stroke="#BBF7D0" stroke-width="28" stroke-linecap="round"/>
<path d="M391.765 120.235L371.966 140.034" stroke="#BBF7D0" stroke-width="28" stroke-linecap="round"/>
<path d="M140.034 140.034L120.235 120.235" stroke="#BBF7D0" stroke-width="28" stroke-linecap="round"/>
<defs>
<linearGradient id="paint0_linear_109_31" x1="256" y1="146" x2="256" y2="366" gradientUnits="userSpaceOnUse">
<stop stop-color="#BBF7D0"/>
<stop offset="0.5" stop-color="#86EFAC"/>
<stop offset="1" stop-color="#3B82F6"/>
</linearGradient>
</defs>
</svg>
